<svg xmlns="http://www.w3.org/2000/svg" width="25" height="25" fill="none" style=""><rect id="backgroundrect" width="100%" height="100%" x="0" y="0" fill="none" stroke="none"/>



<g class="currentLayer" style=""><title>Layer 1</title><path d="M22.8027 2.92969H10.2292C9.88887 1.2602 8.40913 0 6.64062 0H2.19727C0.985693 0 0 0.985693 0 2.19727V22.8027C0 24.0143 0.985693 25 2.19727 25H22.8027C24.0143 25 25 24.0143 25 22.8027C25 21.2322 25 7.53774 25 5.12695C25 3.91538 24.0143 2.92969 22.8027 2.92969ZM2.19727 1.46484H6.64062C7.8522 1.46484 8.83789 2.45054 8.83789 3.66211C8.83789 4.0666 9.16582 4.39453 9.57031 4.39453H22.8027C23.2066 4.39453 23.5352 4.7231 23.5352 5.12695V8.78906H22.0703V6.5918C22.0703 6.1873 21.7424 5.85938 21.3379 5.85938H3.66211C3.25762 5.85938 2.92969 6.1873 2.92969 6.5918V8.78906H1.46484V2.19727C1.46484 1.79341 1.79341 1.46484 2.19727 1.46484ZM4.39453 8.78906V7.32422H20.6055V8.78906H4.39453ZM23.5352 22.8027C23.5352 23.2066 23.2066 23.5352 22.8027 23.5352H2.19727C1.79341 23.5352 1.46484 23.2066 1.46484 22.8027V10.2539H23.5352V22.8027Z" fill="#ffffff" id="svg_1" class="selected" fill-opacity="1"/><path d="M12.5 11.7676C9.673 11.7676 7.37305 14.0675 7.37305 16.8945C7.37305 19.7215 9.673 22.0215 12.5 22.0215C15.327 22.0215 17.627 19.7215 17.627 16.8945C17.627 14.0675 15.327 11.7676 12.5 11.7676ZM12.5 20.5566C10.4807 20.5566 8.83789 18.9138 8.83789 16.8945C8.83789 14.8752 10.4807 13.2324 12.5 13.2324C14.5193 13.2324 16.1621 14.8752 16.1621 16.8945C16.1621 18.9138 14.5193 20.5566 12.5 20.5566Z" fill="#61B4E2" id="svg_2"/><path d="M13.9648 16.1621H13.2324V15.4297C13.2324 15.0252 12.9045 14.6973 12.5 14.6973C12.0955 14.6973 11.7676 15.0252 11.7676 15.4297V16.1621H11.0352C10.6307 16.1621 10.3027 16.49 10.3027 16.8945C10.3027 17.299 10.6307 17.627 11.0352 17.627H11.7676V18.3594C11.7676 18.7639 12.0955 19.0918 12.5 19.0918C12.9045 19.0918 13.2324 18.7639 13.2324 18.3594V17.627H13.9648C14.3693 17.627 14.6973 17.299 14.6973 16.8945C14.6973 16.49 14.3693 16.1621 13.9648 16.1621Z" fill="#61B4E2" id="svg_3"/></g></svg>