<svg width="22" height="22" viewBox="0 0 22 22" fill="none" xmlns="http://www.w3.org/2000/svg">
<g clip-path="url(#clip0)">
<path d="M14.0346 7.97064C13.75 7.97064 13.5193 8.20128 13.5193 8.48586V18.2236C13.5193 18.5079 13.75 18.7388 14.0346 18.7388C14.3192 18.7388 14.5498 18.5079 14.5498 18.2236V8.48586C14.5498 8.20128 14.3192 7.97064 14.0346 7.97064Z" fill="#61B4E2"/>
<path d="M7.95495 7.97064C7.67037 7.97064 7.43973 8.20128 7.43973 8.48586V18.2236C7.43973 18.5079 7.67037 18.7388 7.95495 18.7388C8.23953 18.7388 8.47017 18.5079 8.47017 18.2236V8.48586C8.47017 8.20128 8.23953 7.97064 7.95495 7.97064Z" fill="#61B4E2"/>
<path d="M3.52407 6.54955V19.2435C3.52407 19.9938 3.79919 20.6984 4.2798 21.204C4.75819 21.7109 5.42395 21.9987 6.1207 21.9999H15.8688C16.5658 21.9987 17.2316 21.7109 17.7098 21.204C18.1904 20.6984 18.4655 19.9938 18.4655 19.2435V6.54955C19.4208 6.29596 20.0399 5.37299 19.9121 4.39267C19.7841 3.41254 18.9491 2.67936 17.9605 2.67915H15.3226V2.03513C15.3256 1.49354 15.1115 0.973492 14.7281 0.590901C14.3447 0.20851 13.8239 -0.00442102 13.2823 6.66064e-06H8.70727C8.16569 -0.00442102 7.64483 0.20851 7.26144 0.590901C6.87804 0.973492 6.6639 1.49354 6.66692 2.03513V2.67915H4.02903C3.04045 2.67936 2.20543 3.41254 2.07743 4.39267C1.94963 5.37299 2.5687 6.29596 3.52407 6.54955ZM15.8688 20.9695H6.1207C5.2398 20.9695 4.55451 20.2128 4.55451 19.2435V6.59483H17.435V19.2435C17.435 20.2128 16.7498 20.9695 15.8688 20.9695ZM7.69736 2.03513C7.69394 1.76685 7.7994 1.50864 7.98979 1.31925C8.17998 1.12987 8.4388 1.02582 8.70727 1.03045H13.2823C13.5508 1.02582 13.8096 1.12987 13.9998 1.31925C14.1901 1.50844 14.2956 1.76685 14.2922 2.03513V2.67915H7.69736V2.03513ZM4.02903 3.7096H17.9605C18.4727 3.7096 18.8879 4.12479 18.8879 4.63699C18.8879 5.1492 18.4727 5.56439 17.9605 5.56439H4.02903C3.51683 5.56439 3.10163 5.1492 3.10163 4.63699C3.10163 4.12479 3.51683 3.7096 4.02903 3.7096Z" fill="#61B4E2"/>
<path d="M10.9948 7.97064C10.7102 7.97064 10.4796 8.20128 10.4796 8.48586V18.2236C10.4796 18.5079 10.7102 18.7388 10.9948 18.7388C11.2794 18.7388 11.51 18.5079 11.51 18.2236V8.48586C11.51 8.20128 11.2794 7.97064 10.9948 7.97064Z" fill="#61B4E2"/>
</g>
<defs>
<clipPath id="clip0">
<rect width="22" height="22" fill="white"/>
</clipPath>
</defs>
</svg>
