<svg width="6" height="20" viewBox="0 0 6 20" fill="none" xmlns="http://www.w3.org/2000/svg">
<path d="M3 12.5C4.38071 12.5 5.5 11.3807 5.5 10C5.5 8.61929 4.38071 7.5 3 7.5C1.61929 7.5 0.5 8.61929 0.5 10C0.5 11.3807 1.61929 12.5 3 12.5Z" fill="#AFDAF2"/>
<path d="M3 20C4.38071 20 5.5 18.8807 5.5 17.5C5.5 16.1193 4.38071 15 3 15C1.61929 15 0.5 16.1193 0.5 17.5C0.5 18.8807 1.61929 20 3 20Z" fill="#AFDAF2"/>
<path d="M3 5C4.38071 5 5.5 3.88071 5.5 2.5C5.5 1.11929 4.38071 0 3 0C1.61929 0 0.5 1.11929 0.5 2.5C0.5 3.88071 1.61929 5 3 5Z" fill="#AFDAF2"/>
</svg>
