<svg width="25" height="23" viewBox="0 0 25 23" fill="none" xmlns="http://www.w3.org/2000/svg">
<path d="M9.4227 9.32919C10.3713 9.32919 11.1403 8.56021 11.1403 7.61163C11.1403 6.66305 10.3713 5.89407 9.4227 5.89407C8.47412 5.89407 7.70514 6.66305 7.70514 7.61163C7.70514 8.56021 8.47412 9.32919 9.4227 9.32919Z" fill="#61B4E2"/>
<path d="M23.521 13.9332C22.7099 13.1699 21.6842 12.6689 20.563 12.5258V3.79485C20.563 2.86451 20.1813 2.02959 19.5849 1.40936C18.9647 0.789129 18.1298 0.431305 17.1994 0.431305H3.36355C2.43321 0.431305 1.59828 0.812984 0.978053 1.40936C0.357824 2.02959 0 2.86451 0 3.79485V14.792V15.8178V18.0363C0 18.9666 0.381679 19.8015 0.978053 20.4218C1.59828 21.042 2.43321 21.3998 3.36355 21.3998H16.7462C17.6288 22.1155 18.7261 22.5687 19.9427 22.5687C21.3502 22.5687 22.6145 21.9962 23.521 21.0897C24.4275 20.1832 25 18.9189 25 17.5115C25 16.104 24.4275 14.8397 23.521 13.9332ZM1.26431 3.79485C1.26431 3.22234 1.50286 2.69753 1.88454 2.31585C2.26622 1.93417 2.79103 1.69562 3.36355 1.69562H17.1994C17.7719 1.69562 18.2968 1.93417 18.6784 2.31585C19.0601 2.69753 19.2987 3.22234 19.2987 3.79485V11.2376L15.7681 7.73092C15.5296 7.49237 15.124 7.46852 14.8616 7.73092L9.54198 13.0744L5.93989 9.44848C5.70134 9.20993 5.2958 9.18608 5.0334 9.44848L1.26431 13.2653V3.79485ZM3.33969 20.1594V20.1355C2.76718 20.1355 2.24237 19.897 1.86069 19.5153C1.50286 19.1336 1.26431 18.6088 1.26431 18.0363V15.8178V15.0544L5.5105 10.8082L9.1126 14.4103C9.35114 14.6489 9.75668 14.6489 10.0191 14.4103L15.3387 9.0668L18.8216 12.5735C18.75 12.5973 18.6784 12.6212 18.6069 12.645C18.5114 12.6689 18.416 12.6928 18.2968 12.7405C18.2013 12.7643 18.1059 12.812 18.0105 12.8359C17.9389 12.8597 17.8912 12.8836 17.8197 12.9313C17.7242 12.979 17.6527 13.0029 17.5811 13.0506C17.4618 13.1221 17.3426 13.1937 17.2233 13.2653C17.1517 13.313 17.104 13.3368 17.0324 13.3845C16.9847 13.4084 16.9609 13.4323 16.9132 13.4561C16.6985 13.5992 16.5076 13.7662 16.3406 13.9571C15.4342 14.8636 14.8616 16.1279 14.8616 17.5353C14.8616 17.8931 14.9094 18.2271 14.9809 18.5849C15.0048 18.6803 15.0286 18.7519 15.0525 18.8473C15.124 19.0859 15.1956 19.3244 15.291 19.563V19.5868C15.3864 19.7777 15.4819 19.9924 15.6011 20.1594H3.33969ZM22.5906 20.1832C21.8989 20.875 20.9685 21.2805 19.9189 21.2805C18.917 21.2805 17.9866 20.875 17.3187 20.2309C17.2233 20.1355 17.1279 20.0162 17.0324 19.9208C16.9609 19.8492 16.8893 19.7538 16.8177 19.6823C16.7223 19.563 16.6508 19.4199 16.5792 19.2767C16.5315 19.1813 16.4838 19.1097 16.4361 19.0143C16.3884 18.895 16.3406 18.7519 16.3168 18.6088C16.2929 18.5134 16.2452 18.3941 16.2214 18.2987C16.1737 18.0601 16.1498 17.7977 16.1498 17.5353C16.1498 16.4857 16.5792 15.5554 17.2471 14.8636C17.9389 14.1718 18.8693 13.7662 19.9189 13.7662C20.9685 13.7662 21.8989 14.1956 22.5906 14.8636C23.2824 15.5315 23.688 16.4857 23.688 17.5353C23.688 18.5611 23.2586 19.4914 22.5906 20.1832Z" fill="#61B4E2"/>
<path d="M21.9943 16.8674H20.5391V15.4122C20.5391 15.0544 20.2529 14.7681 19.8951 14.7681C19.5372 14.7681 19.251 15.0544 19.251 15.4122V16.8674H17.7958C17.438 16.8674 17.1517 17.1536 17.1517 17.5114C17.1517 17.8693 17.438 18.1555 17.7958 18.1555H19.251V19.6107C19.251 19.9685 19.5372 20.2548 19.8951 20.2548C20.2529 20.2548 20.5391 19.9685 20.5391 19.6107V18.1555H21.9943C22.3521 18.1555 22.6384 17.8693 22.6384 17.5114C22.6384 17.1536 22.3521 16.8674 21.9943 16.8674Z" fill="#61B4E2"/>
</svg>
