<svg id="SvgjsSvg1032" width="288" height="288" xmlns="http://www.w3.org/2000/svg" version="1.1" xmlns:xlink="http://www.w3.org/1999/xlink" xmlns:svgjs="http://svgjs.com/svgjs"><defs id="SvgjsDefs1033"></defs><g id="SvgjsG1034"><svg xmlns="http://www.w3.org/2000/svg" width="288" height="288" fill="none" viewBox="0 0 17 17"><g clip-path="url(#clip0)" fill="#2eaad1" class="color000 svgShape"><path fill="#2eaad1" d="M14.2389 16.67H5.90394C4.9468 16.67 4.16748 15.8914 4.16748 14.9336V4.51481C4.16748 3.55698 4.9468 2.77835 5.90394 2.77835H14.2389C15.1961 2.77835 15.9754 3.55698 15.9754 4.51481V14.9336C15.9754 15.8914 15.1961 16.67 14.2389 16.67ZM5.90394 3.47293C5.32952 3.47293 4.86206 3.94039 4.86206 4.51481V14.9336C4.86206 15.508 5.32952 15.9754 5.90394 15.9754H14.2389C14.8134 15.9754 15.2808 15.508 15.2808 14.9336V4.51481C15.2808 3.94039 14.8134 3.47293 14.2389 3.47293H5.90394Z" class="color000 svgShape"></path><path fill="#2eaad1" d="M3.12562 14.5863H2.43104C1.4739 14.5863.69458 13.8076.69458 12.8498V1.73646C.69458.778628 1.4739 0 2.43104 0H10.766C11.7232 0 12.5025.778628 12.5025 1.73646 12.5025 1.92816 12.3469 2.08375 12.1552 2.08375 11.9635 2.08375 11.8079 1.92816 11.8079 1.73646 11.8079 1.16204 11.3405.694583 10.766.694583H2.43104C1.85662.694583 1.38916 1.16204 1.38916 1.73646V12.8498C1.38916 13.4242 1.85662 13.8917 2.43104 13.8917H3.12562C3.31733 13.8917 3.47291 14.0473 3.47291 14.239 3.47291 14.4307 3.31733 14.5863 3.12562 14.5863zM12.8498 11.8079H7.29315C7.10145 11.8079 6.94586 11.6523 6.94586 11.4606 6.94586 11.2689 7.10145 11.1133 7.29315 11.1133H12.8498C13.0415 11.1133 13.1971 11.2689 13.1971 11.4606 13.1971 11.6523 13.0415 11.8079 12.8498 11.8079zM12.8498 14.5862H7.29315C7.10145 14.5862 6.94586 14.4307 6.94586 14.239 6.94586 14.0472 7.10145 13.8917 7.29315 13.8917H12.8498C13.0415 13.8917 13.1971 14.0472 13.1971 14.239 13.1971 14.4307 13.0415 14.5862 12.8498 14.5862z" class="color000 svgShape"></path><path fill="#2eaad1" d="M12.8498 9.02957H7.29315C7.10145 9.02957 6.94586 8.87399 6.94586 8.68228 6.94586 8.49058 7.10145 8.33499 7.29315 8.33499H12.8498C13.0415 8.33499 13.1971 8.49058 13.1971 8.68228 13.1971 8.87399 13.0415 9.02957 12.8498 9.02957zM12.8498 6.25125H7.29315C7.10145 6.25125 6.94586 6.09567 6.94586 5.90396 6.94586 5.71226 7.10145 5.55667 7.29315 5.55667H12.8498C13.0415 5.55667 13.1971 5.71226 13.1971 5.90396 13.1971 6.09567 13.0415 6.25125 12.8498 6.25125z" class="color000 svgShape"></path></g><defs><clipPath id="clip0"><rect width="16.67" height="16.67" fill="#ffffff" class="colorfff svgShape"></rect></clipPath></defs></svg></g></svg>