<svg width="22" height="22" viewBox="0 0 22 22" fill="none" xmlns="http://www.w3.org/2000/svg">
<path d="M11 22C4.93436 22 0 17.0656 0 11C0 4.93436 4.93436 0 11 0C17.0656 0 22 4.93436 22 11C22 17.0656 17.0656 22 11 22ZM11 1.375C5.69252 1.375 1.375 5.69252 1.375 11C1.375 16.3075 5.69252 20.625 11 20.625C16.3075 20.625 20.625 16.3075 20.625 11C20.625 5.69252 16.3075 1.375 11 1.375Z" fill="#61B4E2"/>
<path d="M15.8125 11.6875H6.1875C5.808 11.6875 5.5 11.3795 5.5 11C5.5 10.6205 5.808 10.3125 6.1875 10.3125H15.8125C16.192 10.3125 16.5 10.6205 16.5 11C16.5 11.3795 16.192 11.6875 15.8125 11.6875Z" fill="#61B4E2"/>
<path d="M11 16.5C10.6205 16.5 10.3125 16.192 10.3125 15.8125V6.1875C10.3125 5.808 10.6205 5.5 11 5.5C11.3795 5.5 11.6875 5.808 11.6875 6.1875V15.8125C11.6875 16.192 11.3795 16.5 11 16.5Z" fill="#61B4E2"/>
</svg>
