<svg id="SvgjsSvg1026" width="288" height="288" xmlns="http://www.w3.org/2000/svg" version="1.1" xmlns:xlink="http://www.w3.org/1999/xlink" xmlns:svgjs="http://svgjs.com/svgjs"><defs id="SvgjsDefs1027"></defs><g id="SvgjsG1028"><svg xmlns="http://www.w3.org/2000/svg" width="288" height="288" fill="none" viewBox="0 0 14 17"><path fill="#2eaad1" d="M11.9412 16.4706H2.05882C0.924 16.4706 0 15.5474 0 14.4118V2.05882C0 0.923176 0.924 0 2.05882 0H11.9412C13.076 0 14 0.923176 14 2.05882V14.4118C14 15.5474 13.076 16.4706 11.9412 16.4706ZM2.05882 0.823529C1.37776 0.823529 0.823529 1.37776 0.823529 2.05882V14.4118C0.823529 15.0928 1.37776 15.6471 2.05882 15.6471H11.9412C12.6222 15.6471 13.1765 15.0928 13.1765 14.4118V2.05882C13.1765 1.37776 12.6222 0.823529 11.9412 0.823529H2.05882Z" class="color2C2C2C svgShape"></path><path fill="#2eaad1" d="M10.2941 10.7059H3.70589C3.4786 10.7059 3.29413 10.5214 3.29413 10.2941 3.29413 10.0668 3.4786 9.88232 3.70589 9.88232H10.2941C10.5214 9.88232 10.7059 10.0668 10.7059 10.2941 10.7059 10.5214 10.5214 10.7059 10.2941 10.7059zM10.2941 14H3.70589C3.4786 14 3.29413 13.8155 3.29413 13.5882 3.29413 13.3609 3.4786 13.1765 3.70589 13.1765H10.2941C10.5214 13.1765 10.7059 13.3609 10.7059 13.5882 10.7059 13.8155 10.5214 14 10.2941 14zM10.2941 7.41176H3.70589C3.4786 7.41176 3.29413 7.22728 3.29413 6.99999 3.29413 6.7727 3.4786 6.58823 3.70589 6.58823H10.2941C10.5214 6.58823 10.7059 6.7727 10.7059 6.99999 10.7059 7.22728 10.5214 7.41176 10.2941 7.41176zM10.2941 4.11763H3.70589C3.4786 4.11763 3.29413 3.93316 3.29413 3.70586 3.29413 3.47857 3.4786 3.2941 3.70589 3.2941H10.2941C10.5214 3.2941 10.7059 3.47857 10.7059 3.70586 10.7059 3.93316 10.5214 4.11763 10.2941 4.11763z" class="color2C2C2C svgShape"></path></svg></g></svg>