<svg width="25" height="25" viewBox="0 0 25 25" fill="none" xmlns="http://www.w3.org/2000/svg">
<path d="M3.71094 4.39453C4.11544 4.39453 4.44336 4.06661 4.44336 3.66211C4.44336 3.2576 4.11544 2.92969 3.71094 2.92969C3.30643 2.92969 2.97852 3.2576 2.97852 3.66211C2.97852 4.06661 3.30643 4.39453 3.71094 4.39453Z" fill="#61B4E2"/>
<path d="M6.64062 4.39453C7.04513 4.39453 7.37305 4.06661 7.37305 3.66211C7.37305 3.2576 7.04513 2.92969 6.64062 2.92969C6.23612 2.92969 5.9082 3.2576 5.9082 3.66211C5.9082 4.06661 6.23612 4.39453 6.64062 4.39453Z" fill="#61B4E2"/>
<path d="M9.57031 4.39453C9.97482 4.39453 10.3027 4.06661 10.3027 3.66211C10.3027 3.2576 9.97482 2.92969 9.57031 2.92969C9.16581 2.92969 8.83789 3.2576 8.83789 3.66211C8.83789 4.06661 9.16581 4.39453 9.57031 4.39453Z" fill="#61B4E2"/>
<path d="M10.5469 16.2109H18.3594C18.7639 16.2109 19.0918 15.883 19.0918 15.4785V12.5488C19.0918 12.1443 18.7639 11.8164 18.3594 11.8164H10.5469C10.1424 11.8164 9.81445 12.1443 9.81445 12.5488V15.4785C9.81445 15.883 10.1424 16.2109 10.5469 16.2109ZM11.2793 13.2812H17.627V14.7461H11.2793V13.2812Z" fill="#61B4E2"/>
<path d="M10.5469 19.1406H18.3594C18.7639 19.1406 19.0918 18.8127 19.0918 18.4082C19.0918 18.0037 18.7639 17.6758 18.3594 17.6758H10.5469C10.1424 17.6758 9.81445 18.0037 9.81445 18.4082C9.81445 18.8127 10.1424 19.1406 10.5469 19.1406Z" fill="#61B4E2"/>
<path d="M10.5469 22.0703H18.3594C18.7639 22.0703 19.0918 21.7424 19.0918 21.3379C19.0918 20.9334 18.7639 20.6055 18.3594 20.6055H10.5469C10.1424 20.6055 9.81445 20.9334 9.81445 21.3379C9.81445 21.7424 10.1424 22.0703 10.5469 22.0703Z" fill="#61B4E2"/>
<path d="M22.8027 0H2.19727C0.985693 0 0 0.985693 0 2.19727V6.5918V16.9434C0 18.1549 0.985693 19.1406 2.19727 19.1406H2.97852V22.3145C2.97852 23.7953 4.18325 25 5.66406 25H19.3359C20.8167 25 22.0215 23.7953 22.0215 22.3145V19.1406H22.8027C24.0143 19.1406 25 18.1549 25 16.9434V6.5918V2.19727C25 0.985693 24.0143 0 22.8027 0ZM6.88477 22.3145C6.88477 22.9875 6.33716 23.5352 5.66406 23.5352C4.99097 23.5352 4.44336 22.9875 4.44336 22.3145V15.2344H6.88477V22.3145ZM20.5566 22.3145C20.5566 22.9875 20.009 23.5352 19.3359 23.5352H8.05581C8.24356 23.1688 8.34961 22.7537 8.34961 22.3145V10.3516H20.5566V22.3145ZM23.5352 16.9434C23.5352 17.3472 23.2066 17.6758 22.8027 17.6758H22.0215V9.61914C22.0215 9.21465 21.6936 8.88672 21.2891 8.88672H7.61719C7.2127 8.88672 6.88477 9.21465 6.88477 9.61914V13.7695H3.71094C3.30645 13.7695 2.97852 14.0975 2.97852 14.502V17.6758H2.19727C1.79341 17.6758 1.46484 17.3472 1.46484 16.9434V7.32422H23.5352V16.9434ZM23.5352 5.85938H1.46484V2.19727C1.46484 1.79341 1.79341 1.46484 2.19727 1.46484H22.8027C23.2066 1.46484 23.5352 1.79341 23.5352 2.19727V5.85938Z" fill="#61B4E2"/>
</svg>
