<svg width="93" height="93" viewBox="0 0 93 93" fill="none" xmlns="http://www.w3.org/2000/svg">
<g clip-path="url(#clip0)">
<path d="M92.1372 37.1381L68.8868 21.6379C68.0894 21.1073 67.0239 21.239 66.3796 21.948L27.6291 64.5735C26.9098 65.3657 26.9688 66.591 27.7611 67.3103C27.8708 67.4101 27.9918 67.4967 28.1213 67.5688L62.9969 86.9442C63.9196 87.4564 65.0825 87.1358 65.6125 86.2234L92.7379 39.7227C93.2516 38.8377 92.9886 37.7057 92.1372 37.1381Z" fill="#B0BEC5"/>
<path d="M67.8135 5.81204H1.93759C0.867529 5.81204 0 6.67957 0 7.74963V65.8755C0.00054493 66.9456 0.868619 67.8126 1.93868 67.8119C2.59605 67.8115 3.20837 67.4778 3.56512 66.9256L19.7047 41.819L29.6326 51.7469C30.0524 52.1854 30.6603 52.3911 31.2601 52.2971C31.8586 52.2178 32.3859 51.8637 32.6862 51.3401L46.3885 27.3573L66.0815 66.7434C66.4099 67.399 67.0804 67.8129 67.8137 67.8129C67.9639 67.8137 68.1136 67.7955 68.2593 67.7586C69.1328 67.5523 69.75 66.7729 69.7511 65.8754V7.74945C69.7511 6.67957 68.8836 5.81204 67.8135 5.81204Z" fill="#CFD8DC"/>
<path d="M21.3126 32.9374C26.6629 32.9374 31.0002 28.6001 31.0002 23.2498C31.0002 17.8995 26.6629 13.5622 21.3126 13.5622C15.9623 13.5622 11.625 17.8995 11.625 23.2498C11.625 28.6001 15.9623 32.9374 21.3126 32.9374Z" fill="#FFC107"/>
<path d="M69.5453 65.0075L48.2325 22.3817C47.9123 21.7422 47.2658 21.3309 46.5507 21.3122C45.8326 21.2783 45.1584 21.6575 44.8147 22.2887L30.5777 47.2131L20.7466 37.3782C19.9898 36.6217 18.763 36.6217 18.0065 37.3784C17.9089 37.476 17.8219 37.5838 17.7473 37.6999L0.309507 64.8253C-0.270481 65.7246 -0.0116386 66.9236 0.887678 67.5036C1.20047 67.7054 1.56485 67.8128 1.93703 67.813H67.8131C68.8832 67.813 69.7507 66.9454 69.7505 65.8754C69.7507 65.574 69.6804 65.2769 69.5453 65.0075Z" fill="#00BCD4"/>
</g>
<defs>
<clipPath id="clip0">
<rect width="93" height="93" fill="white"/>
</clipPath>
</defs>
</svg>
