<svg width="30" height="30" viewBox="0 0 30 30" fill="none" xmlns="http://www.w3.org/2000/svg">
<rect width="30" height="30" rx="3" fill="#1D90B5"/>
<g clip-path="url(#clip0)">
<path d="M23.1294 14.561L15.7413 7.17284C15.4967 6.93662 15.1069 6.9434 14.8707 7.18799C14.6403 7.42659 14.6403 7.80484 14.8707 8.0434L21.8236 14.9963L14.8707 21.9492C14.6303 22.1896 14.6303 22.5793 14.8707 22.8197C15.1111 23.0601 15.5009 23.0601 15.7413 22.8197L23.1294 15.4316C23.3698 15.1911 23.3698 14.8014 23.1294 14.561Z" fill="white"/>
</g>
<g clip-path="url(#clip1)">
<path d="M15.1294 14.561L7.74127 7.17284C7.49668 6.93662 7.10693 6.9434 6.87071 7.18799C6.64026 7.42659 6.64026 7.80484 6.87071 8.0434L13.8236 14.9963L6.87071 21.9492C6.63034 22.1896 6.63034 22.5793 6.87071 22.8197C7.11115 23.0601 7.50086 23.0601 7.74127 22.8197L15.1294 15.4316C15.3698 15.1911 15.3698 14.8014 15.1294 14.561Z" fill="white"/>
</g>
<defs>
<clipPath id="clip0">
<rect width="16" height="16" fill="white" transform="translate(11 7)"/>
</clipPath>
<clipPath id="clip1">
<rect width="16" height="16" fill="white" transform="translate(3 7)"/>
</clipPath>
</defs>
</svg>
