<svg width="125" height="19" viewBox="0 0 125 19" fill="none" xmlns="http://www.w3.org/2000/svg">
<path d="M14.675 0.3V4.225H9.9V18H5V4.225H0.275V0.3H14.675ZM32.5414 9.1C32.5414 10.8167 32.1664 12.35 31.4164 13.7C30.6664 15.0333 29.5997 16.0833 28.2164 16.85C26.8331 17.6167 25.2081 18 23.3414 18H16.2914V0.3H23.3414C25.2081 0.3 26.8331 0.675 28.2164 1.425C29.6164 2.15833 30.6831 3.19167 31.4164 4.525C32.1664 5.85833 32.5414 7.38333 32.5414 9.1ZM22.8914 13.6C24.3414 13.6 25.4831 13.2083 26.3164 12.425C27.1497 11.6417 27.5664 10.5333 27.5664 9.1C27.5664 7.68333 27.1497 6.58333 26.3164 5.8C25.4831 5 24.3414 4.6 22.8914 4.6H21.2164V13.6H22.8914ZM43.2734 0.024999C44.9401 0.024999 46.4568 0.416666 47.8234 1.2C49.2068 1.96667 50.2901 3.04167 51.0734 4.425C51.8734 5.80833 52.2734 7.36667 52.2734 9.1C52.2734 10.8333 51.8734 12.3917 51.0734 13.775C50.2734 15.1583 49.1818 16.2417 47.7984 17.025C46.4318 17.7917 44.9234 18.175 43.2734 18.175C41.6234 18.175 40.1068 17.7917 38.7234 17.025C37.3401 16.2417 36.2484 15.1583 35.4484 13.775C34.6484 12.3917 34.2484 10.8333 34.2484 9.1C34.2484 7.36667 34.6484 5.80833 35.4484 4.425C36.2484 3.04167 37.3401 1.96667 38.7234 1.2C40.1068 0.416666 41.6234 0.024999 43.2734 0.024999ZM43.2734 4.575C42.0234 4.575 41.0401 4.98333 40.3234 5.8C39.6068 6.6 39.2484 7.7 39.2484 9.1C39.2484 10.4667 39.6068 11.5583 40.3234 12.375C41.0401 13.1917 42.0234 13.6 43.2734 13.6C44.5068 13.6 45.4818 13.1917 46.1984 12.375C46.9151 11.5583 47.2734 10.4667 47.2734 9.1C47.2734 7.7 46.9151 6.6 46.1984 5.8C45.4984 4.98333 44.5234 4.575 43.2734 4.575ZM63.475 18L60.85 14.425L58.825 18H53.4L58.075 10.65L53.2 3.975H58.7L61.3 7.525L63.35 3.975H68.775L63.95 11.15L68.975 18H63.475Z" fill="#1D90B5"/>
<path d="M75.101 17.104H79.197V18H73.965V6.72H75.101V17.104ZM84.5386 17.184C85.328 17.184 85.9893 16.9867 86.5226 16.592C87.056 16.1973 87.376 15.664 87.4826 14.992H88.6666C88.5066 15.92 88.064 16.672 87.3386 17.248C86.6133 17.824 85.696 18.112 84.5866 18.112C83.7546 18.112 83.0133 17.936 82.3626 17.584C81.7226 17.2213 81.2213 16.704 80.8586 16.032C80.496 15.3493 80.3146 14.5493 80.3146 13.632C80.3146 12.7147 80.496 11.92 80.8586 11.248C81.2213 10.5653 81.7226 10.048 82.3626 9.696C83.0133 9.33333 83.7546 9.152 84.5866 9.152C85.44 9.152 86.176 9.33333 86.7946 9.696C87.424 10.048 87.8986 10.5227 88.2186 11.12C88.5493 11.7173 88.7146 12.368 88.7146 13.072C88.7146 13.3707 88.6933 13.6427 88.6506 13.888H81.4186C81.4293 14.624 81.5786 15.2427 81.8666 15.744C82.1653 16.2347 82.5493 16.5973 83.0186 16.832C83.488 17.0667 83.9946 17.184 84.5386 17.184ZM84.5866 10.064C84.0213 10.064 83.504 10.1813 83.0346 10.416C82.5653 10.6507 82.1813 11.0133 81.8826 11.504C81.5946 11.984 81.44 12.5867 81.4186 13.312H87.5946C87.6373 12.5973 87.52 11.9947 87.2426 11.504C86.9653 11.0133 86.592 10.6507 86.1226 10.416C85.6533 10.1813 85.1413 10.064 84.5866 10.064ZM94.6986 17.008V18H93.6586C92.816 18 92.1866 17.8027 91.7706 17.408C91.3546 17.0027 91.1466 16.3253 91.1466 15.376V10.24H89.8186V9.264H91.1466V7.056H92.2826V9.264H94.6826V10.24H92.2826V15.392C92.2826 16.0107 92.3946 16.4373 92.6186 16.672C92.8426 16.896 93.2373 17.008 93.8026 17.008H94.6986ZM100.511 17.008V18H99.4711C98.6285 18 97.9991 17.8027 97.5831 17.408C97.1671 17.0027 96.9591 16.3253 96.9591 15.376V10.24H95.6311V9.264H96.9591V7.056H98.0951V9.264H100.495V10.24H98.0951V15.392C98.0951 16.0107 98.2071 16.4373 98.4311 16.672C98.6551 16.896 99.0498 17.008 99.6151 17.008H100.511ZM106.164 17.184C106.953 17.184 107.614 16.9867 108.148 16.592C108.681 16.1973 109.001 15.664 109.108 14.992H110.292C110.132 15.92 109.689 16.672 108.964 17.248C108.238 17.824 107.321 18.112 106.212 18.112C105.38 18.112 104.638 17.936 103.988 17.584C103.348 17.2213 102.846 16.704 102.484 16.032C102.121 15.3493 101.94 14.5493 101.94 13.632C101.94 12.7147 102.121 11.92 102.484 11.248C102.846 10.5653 103.348 10.048 103.988 9.696C104.638 9.33333 105.38 9.152 106.212 9.152C107.065 9.152 107.801 9.33333 108.42 9.696C109.049 10.048 109.524 10.5227 109.844 11.12C110.174 11.7173 110.34 12.368 110.34 13.072C110.34 13.3707 110.318 13.6427 110.276 13.888H103.044C103.054 14.624 103.204 15.2427 103.492 15.744C103.79 16.2347 104.174 16.5973 104.644 16.832C105.113 17.0667 105.62 17.184 106.164 17.184ZM106.212 10.064C105.646 10.064 105.129 10.1813 104.66 10.416C104.19 10.6507 103.806 11.0133 103.508 11.504C103.22 11.984 103.065 12.5867 103.044 13.312H109.22C109.262 12.5973 109.145 11.9947 108.868 11.504C108.59 11.0133 108.217 10.6507 107.748 10.416C107.278 10.1813 106.766 10.064 106.212 10.064ZM113.492 11.072C113.748 10.4427 114.158 9.95733 114.724 9.616C115.289 9.27467 115.977 9.104 116.788 9.104V10.32H116.42C115.577 10.32 114.878 10.5493 114.324 11.008C113.769 11.456 113.492 12.192 113.492 13.216V18H112.356V9.264H113.492V11.072ZM120.918 9.152C121.867 9.152 122.63 9.40267 123.206 9.904C123.782 10.4053 124.134 11.0827 124.262 11.936H123.19C123.126 11.3707 122.891 10.9067 122.486 10.544C122.091 10.1707 121.558 9.984 120.886 9.984C120.31 9.984 119.856 10.128 119.526 10.416C119.206 10.6933 119.046 11.0667 119.046 11.536C119.046 11.888 119.147 12.1707 119.35 12.384C119.563 12.5973 119.824 12.7627 120.134 12.88C120.443 12.9867 120.859 13.0987 121.382 13.216C122.022 13.3653 122.534 13.52 122.918 13.68C123.312 13.8293 123.648 14.0693 123.926 14.4C124.203 14.7307 124.342 15.1787 124.342 15.744C124.342 16.4373 124.08 17.008 123.558 17.456C123.046 17.8933 122.363 18.112 121.51 18.112C120.507 18.112 119.686 17.8667 119.046 17.376C118.406 16.8747 118.027 16.192 117.91 15.328H118.998C119.062 15.904 119.312 16.3733 119.75 16.736C120.187 17.0987 120.779 17.28 121.526 17.28C122.08 17.28 122.512 17.136 122.822 16.848C123.131 16.56 123.286 16.1867 123.286 15.728C123.286 15.3547 123.179 15.056 122.966 14.832C122.752 14.608 122.486 14.4427 122.166 14.336C121.856 14.2187 121.43 14.096 120.886 13.968C120.256 13.8187 119.75 13.6693 119.366 13.52C118.992 13.3707 118.672 13.1413 118.406 12.832C118.139 12.512 118.006 12.08 118.006 11.536C118.006 10.8213 118.267 10.2453 118.79 9.808C119.312 9.37067 120.022 9.152 120.918 9.152Z" fill="#9C9C9C"/>
</svg>
